<mxfile host="Electron" modified="2023-10-05T20:19:39.734Z" agent="Mozilla/5.0 (Windows NT 10.0; Win64; x64) AppleWebKit/537.36 (KHTML, like Gecko) draw.io/21.7.5 Chrome/114.0.5735.289 Electron/25.8.1 Safari/537.36" etag="M0D1VmiK2jVXodBPSiI9" version="21.7.5" type="device">
  <diagram name="Page-1" id="b5b7bab2-c9e2-2cf4-8b2a-24fd1a2a6d21">
    <mxGraphModel dx="5336" dy="3376" grid="1" gridSize="10" guides="1" tooltips="1" connect="1" arrows="1" fold="1" page="0" pageScale="1" pageWidth="827" pageHeight="1169" background="none" math="0" shadow="0">
      <root>
        <mxCell id="0" />
        <mxCell id="1" parent="0" />
        <mxCell id="6e0c8c40b5770093-6" value="" style="group" parent="1" vertex="1" connectable="0">
          <mxGeometry x="1320" y="80" width="356" height="160" as="geometry" />
        </mxCell>
        <mxCell id="6e0c8c40b5770093-4" value="API Almacen" style="shape=folder;fontStyle=1;spacingTop=10;tabWidth=50;tabHeight=17;tabPosition=left;html=1;rounded=0;shadow=0;comic=0;labelBackgroundColor=none;strokeWidth=1;fontFamily=Verdana;fontSize=10;align=center;" parent="6e0c8c40b5770093-6" vertex="1">
          <mxGeometry width="356" height="160" as="geometry" />
        </mxCell>
        <mxCell id="6e0c8c40b5770093-18" value="" style="group" parent="1" vertex="1" connectable="0">
          <mxGeometry x="774" y="390" width="1490" height="220.5" as="geometry" />
        </mxCell>
        <mxCell id="6e0c8c40b5770093-11" value="" style="shape=folder;fontStyle=1;spacingTop=10;tabWidth=123;tabHeight=24;tabPosition=left;html=1;rounded=0;shadow=0;comic=0;labelBackgroundColor=none;strokeWidth=1;fontFamily=Verdana;fontSize=10;align=center;" parent="6e0c8c40b5770093-18" vertex="1">
          <mxGeometry width="280" height="130" as="geometry" />
        </mxCell>
        <mxCell id="6e0c8c40b5770093-15" value="ID Producto&lt;br&gt;Peso Producto&lt;br&gt;Volumen Producto&lt;br&gt;Direccion Producto&lt;br&gt;Cliente&lt;br&gt;BajaLogica" style="shape=folder;fontStyle=1;spacingTop=10;tabWidth=50;tabHeight=17;tabPosition=left;html=1;rounded=0;shadow=0;comic=0;labelBackgroundColor=none;strokeWidth=1;fontFamily=Verdana;fontSize=10;align=center;" parent="6e0c8c40b5770093-18" vertex="1">
          <mxGeometry x="68.5" y="30" width="122" height="90" as="geometry" />
        </mxCell>
        <mxCell id="Lk0_g97--WdqBCXoRrSc-7" value="Modelo De Productos" style="text;html=1;strokeColor=none;fillColor=none;align=center;verticalAlign=middle;whiteSpace=wrap;rounded=0;" parent="6e0c8c40b5770093-18" vertex="1">
          <mxGeometry x="-4" y="-10" width="136" height="40" as="geometry" />
        </mxCell>
        <mxCell id="RyL7KmwlNNh2GB8NotcJ-2" value="" style="shape=folder;fontStyle=1;spacingTop=10;tabWidth=123;tabHeight=24;tabPosition=left;html=1;rounded=0;shadow=0;comic=0;labelBackgroundColor=none;strokeWidth=1;fontFamily=Verdana;fontSize=10;align=center;fillColor=none;" parent="6e0c8c40b5770093-18" vertex="1">
          <mxGeometry x="-54" y="-55" width="1504" height="225" as="geometry" />
        </mxCell>
        <mxCell id="Lk0_g97--WdqBCXoRrSc-68" value="&lt;font style=&quot;font-size: 12px;&quot;&gt;Logica del negocio&lt;/font&gt;" style="text;html=1;strokeColor=none;fillColor=none;align=center;verticalAlign=middle;whiteSpace=wrap;rounded=0;" parent="6e0c8c40b5770093-18" vertex="1">
          <mxGeometry x="-54" y="-55" width="114" height="20" as="geometry" />
        </mxCell>
        <mxCell id="6e0c8c40b5770093-64" style="edgeStyle=elbowEdgeStyle;rounded=0;html=1;entryX=0.559;entryY=0.251;entryPerimeter=0;dashed=1;labelBackgroundColor=none;startFill=0;endArrow=open;endFill=0;endSize=10;fontFamily=Verdana;fontSize=10;" parent="1" edge="1">
          <mxGeometry relative="1" as="geometry">
            <mxPoint x="710" y="594.5" as="sourcePoint" />
          </mxGeometry>
        </mxCell>
        <mxCell id="6e0c8c40b5770093-65" style="edgeStyle=none;rounded=0;html=1;dashed=1;labelBackgroundColor=none;startFill=0;endArrow=open;endFill=0;endSize=10;fontFamily=Verdana;fontSize=10;entryX=-0.003;entryY=0.411;entryPerimeter=0;" parent="1" edge="1">
          <mxGeometry relative="1" as="geometry">
            <mxPoint x="799.1640000000002" y="653.27" as="targetPoint" />
          </mxGeometry>
        </mxCell>
        <mxCell id="6e0c8c40b5770093-66" style="edgeStyle=none;rounded=0;html=1;dashed=1;labelBackgroundColor=none;startFill=0;endArrow=open;endFill=0;endSize=10;fontFamily=Verdana;fontSize=10;entryX=1.013;entryY=0.444;entryPerimeter=0;" parent="1" edge="1">
          <mxGeometry relative="1" as="geometry">
            <mxPoint x="664.6881765195672" y="594.5" as="sourcePoint" />
          </mxGeometry>
        </mxCell>
        <mxCell id="6e0c8c40b5770093-68" style="edgeStyle=elbowEdgeStyle;rounded=0;html=1;entryX=0.628;entryY=0.26;entryPerimeter=0;dashed=1;labelBackgroundColor=none;startFill=0;endArrow=open;endFill=0;endSize=10;fontFamily=Verdana;fontSize=10;" parent="1" edge="1">
          <mxGeometry relative="1" as="geometry">
            <mxPoint x="658" y="904.5" as="sourcePoint" />
          </mxGeometry>
        </mxCell>
        <mxCell id="6e0c8c40b5770093-69" style="edgeStyle=elbowEdgeStyle;rounded=0;html=1;entryX=0.643;entryY=0.246;entryPerimeter=0;dashed=1;labelBackgroundColor=none;startFill=0;endArrow=open;endFill=0;endSize=10;fontFamily=Verdana;fontSize=10;" parent="1" edge="1">
          <mxGeometry relative="1" as="geometry">
            <mxPoint x="828" y="904.5" as="sourcePoint" />
          </mxGeometry>
        </mxCell>
        <mxCell id="6e0c8c40b5770093-60" style="rounded=0;html=1;dashed=1;labelBackgroundColor=none;startFill=0;endArrow=open;endFill=0;endSize=10;fontFamily=Verdana;fontSize=10;" parent="1" source="6e0c8c40b5770093-11" target="Lk0_g97--WdqBCXoRrSc-3" edge="1">
          <mxGeometry relative="1" as="geometry">
            <mxPoint x="1246" y="590" as="targetPoint" />
          </mxGeometry>
        </mxCell>
        <mxCell id="Lk0_g97--WdqBCXoRrSc-2" value="" style="group" parent="1" vertex="1" connectable="0">
          <mxGeometry x="765" y="810" width="280" height="130" as="geometry" />
        </mxCell>
        <mxCell id="Lk0_g97--WdqBCXoRrSc-3" value="" style="shape=folder;fontStyle=1;spacingTop=10;tabWidth=123;tabHeight=24;tabPosition=left;html=1;rounded=0;shadow=0;comic=0;labelBackgroundColor=none;strokeWidth=1;fontFamily=Verdana;fontSize=10;align=center;" parent="Lk0_g97--WdqBCXoRrSc-2" vertex="1">
          <mxGeometry width="280" height="130" as="geometry" />
        </mxCell>
        <mxCell id="Lk0_g97--WdqBCXoRrSc-5" value="" style="shape=folder;fontStyle=1;spacingTop=10;tabWidth=50;tabHeight=17;tabPosition=left;html=1;rounded=0;shadow=0;comic=0;labelBackgroundColor=none;strokeWidth=1;fontFamily=Verdana;fontSize=10;align=center;" parent="Lk0_g97--WdqBCXoRrSc-2" vertex="1">
          <mxGeometry x="84" y="40" width="136" height="80" as="geometry" />
        </mxCell>
        <mxCell id="Lk0_g97--WdqBCXoRrSc-13" value="Controlador de Productos" style="text;html=1;strokeColor=none;fillColor=none;align=center;verticalAlign=middle;whiteSpace=wrap;rounded=0;" parent="Lk0_g97--WdqBCXoRrSc-2" vertex="1">
          <mxGeometry x="-4" y="-6.5" width="124" height="37" as="geometry" />
        </mxCell>
        <mxCell id="Lk0_g97--WdqBCXoRrSc-14" value="&lt;span style=&quot;color: rgb(240, 240, 240); font-family: Verdana; font-size: 10px; font-style: normal; font-variant-ligatures: normal; font-variant-caps: normal; font-weight: 700; letter-spacing: normal; orphans: 2; text-align: center; text-indent: 0px; text-transform: none; widows: 2; word-spacing: 0px; -webkit-text-stroke-width: 0px; background-color: rgb(42, 37, 47); text-decoration-thickness: initial; text-decoration-style: initial; text-decoration-color: initial; float: none; display: inline !important;&quot;&gt;Validacion de datos y &lt;br&gt;establecimientos de rutas o urls&lt;/span&gt;" style="text;whiteSpace=wrap;html=1;" parent="Lk0_g97--WdqBCXoRrSc-2" vertex="1">
          <mxGeometry x="90" y="65" width="124" height="52.5" as="geometry" />
        </mxCell>
        <mxCell id="Lk0_g97--WdqBCXoRrSc-15" value="" style="group" parent="1" vertex="1" connectable="0">
          <mxGeometry x="1148" y="398" width="280" height="130" as="geometry" />
        </mxCell>
        <mxCell id="Lk0_g97--WdqBCXoRrSc-16" value="" style="shape=folder;fontStyle=1;spacingTop=10;tabWidth=123;tabHeight=24;tabPosition=left;html=1;rounded=0;shadow=0;comic=0;labelBackgroundColor=none;strokeWidth=1;fontFamily=Verdana;fontSize=10;align=center;" parent="Lk0_g97--WdqBCXoRrSc-15" vertex="1">
          <mxGeometry width="280" height="130" as="geometry" />
        </mxCell>
        <mxCell id="Lk0_g97--WdqBCXoRrSc-18" value="ID Lote&lt;br&gt;Fecha Creacion&lt;br&gt;Fecha Entrega&lt;br&gt;ID Destino&lt;br&gt;BajaLogica" style="shape=folder;fontStyle=1;spacingTop=10;tabWidth=50;tabHeight=17;tabPosition=left;html=1;rounded=0;shadow=0;comic=0;labelBackgroundColor=none;strokeWidth=1;fontFamily=Verdana;fontSize=10;align=center;" parent="Lk0_g97--WdqBCXoRrSc-15" vertex="1">
          <mxGeometry x="68.5" y="30" width="122" height="90" as="geometry" />
        </mxCell>
        <mxCell id="Lk0_g97--WdqBCXoRrSc-19" value="Modelo De Lotes" style="text;html=1;strokeColor=none;fillColor=none;align=center;verticalAlign=middle;whiteSpace=wrap;rounded=0;" parent="Lk0_g97--WdqBCXoRrSc-15" vertex="1">
          <mxGeometry y="-10" width="109" height="40" as="geometry" />
        </mxCell>
        <mxCell id="Lk0_g97--WdqBCXoRrSc-20" value="" style="group" parent="1" vertex="1" connectable="0">
          <mxGeometry x="1139" y="818" width="280" height="130" as="geometry" />
        </mxCell>
        <mxCell id="Lk0_g97--WdqBCXoRrSc-21" value="" style="shape=folder;fontStyle=1;spacingTop=10;tabWidth=123;tabHeight=24;tabPosition=left;html=1;rounded=0;shadow=0;comic=0;labelBackgroundColor=none;strokeWidth=1;fontFamily=Verdana;fontSize=10;align=center;" parent="Lk0_g97--WdqBCXoRrSc-20" vertex="1">
          <mxGeometry width="280" height="130" as="geometry" />
        </mxCell>
        <mxCell id="Lk0_g97--WdqBCXoRrSc-23" value="" style="shape=folder;fontStyle=1;spacingTop=10;tabWidth=50;tabHeight=17;tabPosition=left;html=1;rounded=0;shadow=0;comic=0;labelBackgroundColor=none;strokeWidth=1;fontFamily=Verdana;fontSize=10;align=center;" parent="Lk0_g97--WdqBCXoRrSc-20" vertex="1">
          <mxGeometry x="84" y="40" width="136" height="80" as="geometry" />
        </mxCell>
        <mxCell id="Lk0_g97--WdqBCXoRrSc-24" value="Controlador de Lotes" style="text;html=1;strokeColor=none;fillColor=none;align=center;verticalAlign=middle;whiteSpace=wrap;rounded=0;" parent="Lk0_g97--WdqBCXoRrSc-20" vertex="1">
          <mxGeometry x="-4" y="-6.5" width="100" height="37" as="geometry" />
        </mxCell>
        <mxCell id="Lk0_g97--WdqBCXoRrSc-25" value="&lt;span style=&quot;color: rgb(240, 240, 240); font-family: Verdana; font-size: 10px; font-style: normal; font-variant-ligatures: normal; font-variant-caps: normal; font-weight: 700; letter-spacing: normal; orphans: 2; text-align: center; text-indent: 0px; text-transform: none; widows: 2; word-spacing: 0px; -webkit-text-stroke-width: 0px; background-color: rgb(42, 37, 47); text-decoration-thickness: initial; text-decoration-style: initial; text-decoration-color: initial; float: none; display: inline !important;&quot;&gt;Validacion de datos y &lt;br&gt;establecimientos de rutas o urls&lt;/span&gt;" style="text;whiteSpace=wrap;html=1;" parent="Lk0_g97--WdqBCXoRrSc-20" vertex="1">
          <mxGeometry x="90" y="65" width="124" height="52.5" as="geometry" />
        </mxCell>
        <mxCell id="Lk0_g97--WdqBCXoRrSc-27" value="" style="group" parent="1" vertex="1" connectable="0">
          <mxGeometry x="1548" y="398" width="280" height="130" as="geometry" />
        </mxCell>
        <mxCell id="Lk0_g97--WdqBCXoRrSc-28" value="" style="shape=folder;fontStyle=1;spacingTop=10;tabWidth=123;tabHeight=24;tabPosition=left;html=1;rounded=0;shadow=0;comic=0;labelBackgroundColor=none;strokeWidth=1;fontFamily=Verdana;fontSize=10;align=center;" parent="Lk0_g97--WdqBCXoRrSc-27" vertex="1">
          <mxGeometry width="280" height="130" as="geometry" />
        </mxCell>
        <mxCell id="Lk0_g97--WdqBCXoRrSc-30" value="ID Lote&lt;br&gt;ID Producto" style="shape=folder;fontStyle=1;spacingTop=10;tabWidth=50;tabHeight=17;tabPosition=left;html=1;rounded=0;shadow=0;comic=0;labelBackgroundColor=none;strokeWidth=1;fontFamily=Verdana;fontSize=10;align=center;" parent="Lk0_g97--WdqBCXoRrSc-27" vertex="1">
          <mxGeometry x="68.5" y="30" width="122" height="90" as="geometry" />
        </mxCell>
        <mxCell id="Lk0_g97--WdqBCXoRrSc-31" value="Modelo de Integracion" style="text;html=1;strokeColor=none;fillColor=none;align=center;verticalAlign=middle;whiteSpace=wrap;rounded=0;" parent="Lk0_g97--WdqBCXoRrSc-27" vertex="1">
          <mxGeometry width="122" height="30" as="geometry" />
        </mxCell>
        <mxCell id="Lk0_g97--WdqBCXoRrSc-32" value="" style="group" parent="1" vertex="1" connectable="0">
          <mxGeometry x="1539" y="818" width="280" height="130" as="geometry" />
        </mxCell>
        <mxCell id="Lk0_g97--WdqBCXoRrSc-33" value="" style="shape=folder;fontStyle=1;spacingTop=10;tabWidth=123;tabHeight=24;tabPosition=left;html=1;rounded=0;shadow=0;comic=0;labelBackgroundColor=none;strokeWidth=1;fontFamily=Verdana;fontSize=10;align=center;" parent="Lk0_g97--WdqBCXoRrSc-32" vertex="1">
          <mxGeometry width="280" height="130" as="geometry" />
        </mxCell>
        <mxCell id="Lk0_g97--WdqBCXoRrSc-35" value="" style="shape=folder;fontStyle=1;spacingTop=10;tabWidth=50;tabHeight=17;tabPosition=left;html=1;rounded=0;shadow=0;comic=0;labelBackgroundColor=none;strokeWidth=1;fontFamily=Verdana;fontSize=10;align=center;" parent="Lk0_g97--WdqBCXoRrSc-32" vertex="1">
          <mxGeometry x="84" y="40" width="136" height="80" as="geometry" />
        </mxCell>
        <mxCell id="Lk0_g97--WdqBCXoRrSc-36" value="Controlador de Integracion" style="text;html=1;strokeColor=none;fillColor=none;align=center;verticalAlign=middle;whiteSpace=wrap;rounded=0;" parent="Lk0_g97--WdqBCXoRrSc-32" vertex="1">
          <mxGeometry x="-4" y="-6.5" width="100" height="37" as="geometry" />
        </mxCell>
        <mxCell id="Lk0_g97--WdqBCXoRrSc-37" value="&lt;span style=&quot;color: rgb(240, 240, 240); font-family: Verdana; font-size: 10px; font-style: normal; font-variant-ligatures: normal; font-variant-caps: normal; font-weight: 700; letter-spacing: normal; orphans: 2; text-align: center; text-indent: 0px; text-transform: none; widows: 2; word-spacing: 0px; -webkit-text-stroke-width: 0px; background-color: rgb(42, 37, 47); text-decoration-thickness: initial; text-decoration-style: initial; text-decoration-color: initial; float: none; display: inline !important;&quot;&gt;Validacion de datos y &lt;br&gt;establecimientos de rutas o urls&lt;/span&gt;" style="text;whiteSpace=wrap;html=1;" parent="Lk0_g97--WdqBCXoRrSc-32" vertex="1">
          <mxGeometry x="90" y="65" width="124" height="52.5" as="geometry" />
        </mxCell>
        <mxCell id="Lk0_g97--WdqBCXoRrSc-38" style="rounded=0;html=1;dashed=1;labelBackgroundColor=none;startFill=0;endArrow=open;endFill=0;endSize=10;fontFamily=Verdana;fontSize=10;edgeStyle=elbowEdgeStyle;" parent="1" source="6e0c8c40b5770093-4" target="RyL7KmwlNNh2GB8NotcJ-2" edge="1">
          <mxGeometry relative="1" as="geometry">
            <mxPoint x="1369" y="180" as="sourcePoint" />
            <mxPoint x="1970" y="160" as="targetPoint" />
            <Array as="points" />
          </mxGeometry>
        </mxCell>
        <mxCell id="Lk0_g97--WdqBCXoRrSc-39" value="" style="group" parent="1" vertex="1" connectable="0">
          <mxGeometry x="1898" y="408" width="280" height="130" as="geometry" />
        </mxCell>
        <mxCell id="Lk0_g97--WdqBCXoRrSc-40" value="" style="shape=folder;fontStyle=1;spacingTop=10;tabWidth=123;tabHeight=24;tabPosition=left;html=1;rounded=0;shadow=0;comic=0;labelBackgroundColor=none;strokeWidth=1;fontFamily=Verdana;fontSize=10;align=center;" parent="Lk0_g97--WdqBCXoRrSc-39" vertex="1">
          <mxGeometry width="280" height="130" as="geometry" />
        </mxCell>
        <mxCell id="Lk0_g97--WdqBCXoRrSc-42" value="ID Lote&lt;br&gt;ID Camion&lt;br&gt;Fecha Envio" style="shape=folder;fontStyle=1;spacingTop=10;tabWidth=50;tabHeight=17;tabPosition=left;html=1;rounded=0;shadow=0;comic=0;labelBackgroundColor=none;strokeWidth=1;fontFamily=Verdana;fontSize=10;align=center;" parent="Lk0_g97--WdqBCXoRrSc-39" vertex="1">
          <mxGeometry x="68.5" y="30" width="122" height="90" as="geometry" />
        </mxCell>
        <mxCell id="Lk0_g97--WdqBCXoRrSc-43" value="Modelo de transporte" style="text;html=1;strokeColor=none;fillColor=none;align=center;verticalAlign=middle;whiteSpace=wrap;rounded=0;" parent="Lk0_g97--WdqBCXoRrSc-39" vertex="1">
          <mxGeometry y="-10" width="120" height="40" as="geometry" />
        </mxCell>
        <mxCell id="Lk0_g97--WdqBCXoRrSc-44" value="" style="group" parent="1" vertex="1" connectable="0">
          <mxGeometry x="1889" y="828" width="280" height="130" as="geometry" />
        </mxCell>
        <mxCell id="Lk0_g97--WdqBCXoRrSc-45" value="" style="shape=folder;fontStyle=1;spacingTop=10;tabWidth=123;tabHeight=24;tabPosition=left;html=1;rounded=0;shadow=0;comic=0;labelBackgroundColor=none;strokeWidth=1;fontFamily=Verdana;fontSize=10;align=center;" parent="Lk0_g97--WdqBCXoRrSc-44" vertex="1">
          <mxGeometry width="280" height="130" as="geometry" />
        </mxCell>
        <mxCell id="Lk0_g97--WdqBCXoRrSc-47" value="" style="shape=folder;fontStyle=1;spacingTop=10;tabWidth=50;tabHeight=17;tabPosition=left;html=1;rounded=0;shadow=0;comic=0;labelBackgroundColor=none;strokeWidth=1;fontFamily=Verdana;fontSize=10;align=center;" parent="Lk0_g97--WdqBCXoRrSc-44" vertex="1">
          <mxGeometry x="84" y="40" width="136" height="80" as="geometry" />
        </mxCell>
        <mxCell id="Lk0_g97--WdqBCXoRrSc-48" value="Controlador de transporte" style="text;html=1;strokeColor=none;fillColor=none;align=center;verticalAlign=middle;whiteSpace=wrap;rounded=0;" parent="Lk0_g97--WdqBCXoRrSc-44" vertex="1">
          <mxGeometry x="-4" y="-6.5" width="100" height="37" as="geometry" />
        </mxCell>
        <mxCell id="Lk0_g97--WdqBCXoRrSc-49" value="&lt;span style=&quot;color: rgb(240, 240, 240); font-family: Verdana; font-size: 10px; font-style: normal; font-variant-ligatures: normal; font-variant-caps: normal; font-weight: 700; letter-spacing: normal; orphans: 2; text-align: center; text-indent: 0px; text-transform: none; widows: 2; word-spacing: 0px; -webkit-text-stroke-width: 0px; background-color: rgb(42, 37, 47); text-decoration-thickness: initial; text-decoration-style: initial; text-decoration-color: initial; float: none; display: inline !important;&quot;&gt;Validacion de datos y &lt;br&gt;establecimientos de rutas o urls&lt;/span&gt;" style="text;whiteSpace=wrap;html=1;" parent="Lk0_g97--WdqBCXoRrSc-44" vertex="1">
          <mxGeometry x="90" y="65" width="124" height="52.5" as="geometry" />
        </mxCell>
        <mxCell id="Lk0_g97--WdqBCXoRrSc-57" style="rounded=0;html=1;dashed=1;labelBackgroundColor=none;startFill=0;endArrow=open;endFill=0;endSize=10;fontFamily=Verdana;fontSize=10;edgeStyle=elbowEdgeStyle;exitX=0.5;exitY=1;exitDx=0;exitDy=0;exitPerimeter=0;" parent="1" source="Lk0_g97--WdqBCXoRrSc-16" target="Lk0_g97--WdqBCXoRrSc-21" edge="1">
          <mxGeometry relative="1" as="geometry">
            <mxPoint x="1434" y="167" as="sourcePoint" />
            <mxPoint x="1613" y="400" as="targetPoint" />
            <Array as="points">
              <mxPoint x="1288" y="650" />
            </Array>
          </mxGeometry>
        </mxCell>
        <mxCell id="Lk0_g97--WdqBCXoRrSc-58" style="rounded=0;html=1;dashed=1;labelBackgroundColor=none;startFill=0;endArrow=open;endFill=0;endSize=10;fontFamily=Verdana;fontSize=10;edgeStyle=elbowEdgeStyle;exitX=0.5;exitY=1;exitDx=0;exitDy=0;exitPerimeter=0;" parent="1" source="Lk0_g97--WdqBCXoRrSc-28" target="Lk0_g97--WdqBCXoRrSc-33" edge="1">
          <mxGeometry relative="1" as="geometry">
            <mxPoint x="1714" y="610.5" as="sourcePoint" />
            <mxPoint x="1670" y="897.5" as="targetPoint" />
            <Array as="points">
              <mxPoint x="1620" y="680" />
            </Array>
          </mxGeometry>
        </mxCell>
        <mxCell id="Lk0_g97--WdqBCXoRrSc-59" style="rounded=0;html=1;dashed=1;labelBackgroundColor=none;startFill=0;endArrow=open;endFill=0;endSize=10;fontFamily=Verdana;fontSize=10;edgeStyle=elbowEdgeStyle;" parent="1" source="Lk0_g97--WdqBCXoRrSc-40" target="Lk0_g97--WdqBCXoRrSc-45" edge="1">
          <mxGeometry relative="1" as="geometry">
            <mxPoint x="2088" y="570" as="sourcePoint" />
            <mxPoint x="2010" y="854" as="targetPoint" />
            <Array as="points" />
          </mxGeometry>
        </mxCell>
        <mxCell id="Lk0_g97--WdqBCXoRrSc-60" value="" style="group" parent="1" vertex="1" connectable="0">
          <mxGeometry x="838" y="1610" width="7210" height="370" as="geometry" />
        </mxCell>
        <mxCell id="Lk0_g97--WdqBCXoRrSc-61" value="" style="shape=folder;fontStyle=1;spacingTop=10;tabWidth=123;tabHeight=24;tabPosition=left;html=1;rounded=0;shadow=0;comic=0;labelBackgroundColor=none;strokeWidth=1;fontFamily=Verdana;fontSize=10;align=center;" parent="Lk0_g97--WdqBCXoRrSc-60" vertex="1">
          <mxGeometry width="1260" height="168.91304347826087" as="geometry" />
        </mxCell>
        <mxCell id="Lk0_g97--WdqBCXoRrSc-63" value="" style="shape=folder;fontStyle=1;spacingTop=10;tabWidth=50;tabHeight=17;tabPosition=left;html=1;rounded=0;shadow=0;comic=0;labelBackgroundColor=none;strokeWidth=1;fontFamily=Verdana;fontSize=10;align=center;" parent="Lk0_g97--WdqBCXoRrSc-60" vertex="1">
          <mxGeometry x="378" y="37.120652173913044" width="612" height="107.66195652173913" as="geometry" />
        </mxCell>
        <mxCell id="Lk0_g97--WdqBCXoRrSc-64" value="Interfaz almacen" style="text;html=1;strokeColor=none;fillColor=none;align=center;verticalAlign=middle;whiteSpace=wrap;rounded=0;" parent="Lk0_g97--WdqBCXoRrSc-60" vertex="1">
          <mxGeometry x="-30" y="-6.032608695652174" width="180" height="34.33760869565217" as="geometry" />
        </mxCell>
        <mxCell id="Lk0_g97--WdqBCXoRrSc-65" value="&lt;div style=&quot;font-size: 15px;&quot;&gt;&lt;font color=&quot;#ffffff&quot; style=&quot;font-size: 15px;&quot; face=&quot;Verdana&quot;&gt;&lt;span style=&quot;background-color: rgb(42, 37, 47);&quot;&gt;&lt;b style=&quot;&quot;&gt;Ventana de agregar productos.&lt;/b&gt;&lt;/span&gt;&lt;/font&gt;&lt;/div&gt;&lt;div style=&quot;font-size: 15px;&quot;&gt;&lt;font color=&quot;#ffffff&quot; style=&quot;font-size: 15px;&quot; face=&quot;Verdana&quot;&gt;&lt;span style=&quot;background-color: rgb(42, 37, 47);&quot;&gt;&lt;b&gt;Ventana de agregar lotes.&lt;/b&gt;&lt;/span&gt;&lt;/font&gt;&lt;/div&gt;&lt;div style=&quot;font-size: 15px;&quot;&gt;&lt;font color=&quot;#ffffff&quot; style=&quot;font-size: 15px;&quot; face=&quot;Verdana&quot;&gt;&lt;span style=&quot;background-color: rgb(42, 37, 47);&quot;&gt;&lt;b&gt;Ventana de integrar productos a un lote.&lt;/b&gt;&lt;/span&gt;&lt;/font&gt;&lt;/div&gt;&lt;div style=&quot;font-size: 15px;&quot;&gt;&lt;font color=&quot;#ffffff&quot; style=&quot;font-size: 15px;&quot; face=&quot;Verdana&quot;&gt;&lt;span style=&quot;background-color: rgb(42, 37, 47);&quot;&gt;&lt;b style=&quot;&quot;&gt;Ventana de asignar lote a un camion.&lt;/b&gt;&lt;/span&gt;&lt;/font&gt;&lt;/div&gt;" style="text;whiteSpace=wrap;html=1;align=left;" parent="Lk0_g97--WdqBCXoRrSc-60" vertex="1">
          <mxGeometry x="405" y="60.32608695652174" width="415" height="76.41304347826087" as="geometry" />
        </mxCell>
        <mxCell id="Lk0_g97--WdqBCXoRrSc-73" value="&lt;font style=&quot;font-size: 7px;&quot;&gt;Ventanas-Gui&lt;/font&gt;" style="text;html=1;strokeColor=none;fillColor=none;align=center;verticalAlign=middle;whiteSpace=wrap;rounded=0;" parent="Lk0_g97--WdqBCXoRrSc-60" vertex="1">
          <mxGeometry x="350" y="37.120652173913044" width="100" height="16.086956521739133" as="geometry" />
        </mxCell>
        <mxCell id="Lk0_g97--WdqBCXoRrSc-80" value="&lt;font style=&quot;font-size: 12px;&quot;&gt;Capa visual&lt;/font&gt;" style="text;html=1;strokeColor=none;fillColor=none;align=center;verticalAlign=middle;whiteSpace=wrap;rounded=0;" parent="Lk0_g97--WdqBCXoRrSc-60" vertex="1">
          <mxGeometry x="-208" y="-96.52173913043478" width="320" height="72.3913043478261" as="geometry" />
        </mxCell>
        <mxCell id="_XUYrqoo8mhQpUJpbrl_-145" value="" style="group" parent="Lk0_g97--WdqBCXoRrSc-60" vertex="1" connectable="0">
          <mxGeometry x="5820" y="70" width="1260" height="210" as="geometry" />
        </mxCell>
        <mxCell id="_XUYrqoo8mhQpUJpbrl_-146" value="" style="shape=folder;fontStyle=1;spacingTop=10;tabWidth=123;tabHeight=24;tabPosition=left;html=1;rounded=0;shadow=0;comic=0;labelBackgroundColor=none;strokeWidth=1;fontFamily=Verdana;fontSize=10;align=center;" parent="_XUYrqoo8mhQpUJpbrl_-145" vertex="1">
          <mxGeometry width="1260" height="210" as="geometry" />
        </mxCell>
        <mxCell id="_XUYrqoo8mhQpUJpbrl_-147" value="" style="shape=folder;fontStyle=1;spacingTop=10;tabWidth=50;tabHeight=17;tabPosition=left;html=1;rounded=0;shadow=0;comic=0;labelBackgroundColor=none;strokeWidth=1;fontFamily=Verdana;fontSize=10;align=center;" parent="_XUYrqoo8mhQpUJpbrl_-145" vertex="1">
          <mxGeometry x="378" y="46.15" width="612" height="133.85" as="geometry" />
        </mxCell>
        <mxCell id="_XUYrqoo8mhQpUJpbrl_-148" value="Interfaz camionero" style="text;html=1;strokeColor=none;fillColor=none;align=center;verticalAlign=middle;whiteSpace=wrap;rounded=0;" parent="_XUYrqoo8mhQpUJpbrl_-145" vertex="1">
          <mxGeometry x="-30" y="-7.5" width="180" height="42.69" as="geometry" />
        </mxCell>
        <mxCell id="_XUYrqoo8mhQpUJpbrl_-149" value="&lt;div style=&quot;font-size: 15px;&quot;&gt;&lt;font color=&quot;#ffffff&quot; face=&quot;Verdana&quot;&gt;&lt;span style=&quot;background-color: rgb(42, 37, 47);&quot;&gt;&lt;b&gt;Ventana:&lt;br&gt;Visualizar lotes en transito, su destino, tipo de&lt;br&gt;trayecto y que camion transporta cada lote&lt;/b&gt;&lt;/span&gt;&lt;/font&gt;&lt;/div&gt;" style="text;whiteSpace=wrap;html=1;align=left;" parent="_XUYrqoo8mhQpUJpbrl_-145" vertex="1">
          <mxGeometry x="405" y="75" width="415" height="95" as="geometry" />
        </mxCell>
        <mxCell id="_XUYrqoo8mhQpUJpbrl_-150" value="&lt;font style=&quot;font-size: 7px;&quot;&gt;Ventanas-Gui&lt;/font&gt;" style="text;html=1;strokeColor=none;fillColor=none;align=center;verticalAlign=middle;whiteSpace=wrap;rounded=0;" parent="_XUYrqoo8mhQpUJpbrl_-145" vertex="1">
          <mxGeometry x="350" y="46.15" width="100" height="20" as="geometry" />
        </mxCell>
        <mxCell id="Lk0_g97--WdqBCXoRrSc-70" value="&lt;font style=&quot;font-size: 10px;&quot;&gt;Interprete de datos recibidos&lt;/font&gt;" style="text;html=1;strokeColor=none;fillColor=none;align=center;verticalAlign=middle;whiteSpace=wrap;rounded=0;" parent="1" vertex="1">
          <mxGeometry x="716" y="770" width="130" height="30" as="geometry" />
        </mxCell>
        <mxCell id="Lk0_g97--WdqBCXoRrSc-82" value="" style="group" parent="1" vertex="1" connectable="0">
          <mxGeometry x="3278" y="2530" width="5380" height="890" as="geometry" />
        </mxCell>
        <mxCell id="Lk0_g97--WdqBCXoRrSc-83" value="&lt;font style=&quot;font-size: 20px;&quot;&gt;API o Middleware de autenticacion&amp;nbsp; (Login)&lt;br&gt;&lt;br&gt;Username&lt;br&gt;Password&lt;br&gt;Tipo de usuario&lt;/font&gt;" style="shape=folder;fontStyle=1;spacingTop=10;tabWidth=50;tabHeight=17;tabPosition=left;html=1;rounded=0;shadow=0;comic=0;labelBackgroundColor=none;strokeWidth=1;fontFamily=Verdana;fontSize=10;align=center;" parent="Lk0_g97--WdqBCXoRrSc-82" vertex="1">
          <mxGeometry y="-160" width="1240" height="320" as="geometry" />
        </mxCell>
        <mxCell id="Lk0_g97--WdqBCXoRrSc-108" value="&lt;font style=&quot;font-size: 21px;&quot;&gt;Acceso al sistema&lt;/font&gt;" style="text;html=1;strokeColor=none;fillColor=none;align=center;verticalAlign=middle;whiteSpace=wrap;rounded=0;" parent="Lk0_g97--WdqBCXoRrSc-82" vertex="1">
          <mxGeometry x="477.5" y="120" width="194" height="40" as="geometry" />
        </mxCell>
        <mxCell id="Lk0_g97--WdqBCXoRrSc-114" value="&lt;font style=&quot;font-size: 21px;&quot;&gt;Loop hacia login&lt;/font&gt;" style="text;html=1;strokeColor=none;fillColor=none;align=center;verticalAlign=middle;whiteSpace=wrap;rounded=0;" parent="Lk0_g97--WdqBCXoRrSc-82" vertex="1">
          <mxGeometry x="717.5" y="120" width="194" height="40" as="geometry" />
        </mxCell>
        <mxCell id="RyL7KmwlNNh2GB8NotcJ-5" value="" style="shape=folder;fontStyle=1;spacingTop=10;tabWidth=123;tabHeight=24;tabPosition=left;html=1;rounded=0;shadow=0;comic=0;labelBackgroundColor=none;strokeWidth=1;fontFamily=Verdana;fontSize=10;align=center;fillColor=none;" parent="Lk0_g97--WdqBCXoRrSc-82" vertex="1">
          <mxGeometry x="-100" y="-275.46" width="1490" height="1165.46" as="geometry" />
        </mxCell>
        <mxCell id="RyL7KmwlNNh2GB8NotcJ-6" value="&lt;font style=&quot;font-size: 18px;&quot;&gt;Login&lt;/font&gt;" style="text;html=1;strokeColor=none;fillColor=none;align=center;verticalAlign=middle;whiteSpace=wrap;rounded=0;" parent="Lk0_g97--WdqBCXoRrSc-82" vertex="1">
          <mxGeometry x="-88" y="-280" width="90" height="40" as="geometry" />
        </mxCell>
        <mxCell id="Lk0_g97--WdqBCXoRrSc-91" value="" style="triangle;whiteSpace=wrap;html=1;rounded=0;shadow=0;comic=0;labelBackgroundColor=none;strokeWidth=1;fontFamily=Verdana;fontSize=10;align=center;rotation=-90;" parent="1" vertex="1">
          <mxGeometry x="3309.25" y="2370" width="17.5" height="20" as="geometry" />
        </mxCell>
        <mxCell id="Lk0_g97--WdqBCXoRrSc-96" value="" style="shape=folder;fontStyle=1;spacingTop=10;tabWidth=50;tabHeight=17;tabPosition=left;html=1;rounded=0;shadow=0;comic=0;labelBackgroundColor=none;strokeWidth=1;fontFamily=Verdana;fontSize=10;align=center;" parent="1" vertex="1">
          <mxGeometry x="3308" y="2880" width="1150" height="330" as="geometry" />
        </mxCell>
        <mxCell id="Lk0_g97--WdqBCXoRrSc-97" value="&lt;font style=&quot;font-size: 9px;&quot;&gt;Login visual&lt;/font&gt;" style="text;html=1;strokeColor=none;fillColor=none;align=center;verticalAlign=middle;whiteSpace=wrap;rounded=0;" parent="1" vertex="1">
          <mxGeometry x="3298" y="2870" width="72" height="40" as="geometry" />
        </mxCell>
        <mxCell id="Lk0_g97--WdqBCXoRrSc-99" value="&lt;h1 style=&quot;font-size: 43px;&quot;&gt;&lt;span style=&quot;background-color: initial;&quot;&gt;&lt;font style=&quot;font-size: 43px;&quot;&gt;Ventana Login:&lt;/font&gt;&lt;/span&gt;&lt;/h1&gt;&lt;div style=&quot;font-size: 43px;&quot;&gt;&lt;span style=&quot;background-color: initial;&quot;&gt;&lt;font style=&quot;font-size: 43px;&quot;&gt;Input de usuario.&lt;/font&gt;&lt;/span&gt;&lt;/div&gt;&lt;div style=&quot;font-size: 43px;&quot;&gt;&lt;span style=&quot;background-color: initial;&quot;&gt;&lt;font style=&quot;font-size: 43px;&quot;&gt;Input de password.&lt;/font&gt;&lt;/span&gt;&lt;/div&gt;&lt;div style=&quot;font-size: 43px;&quot;&gt;&lt;font style=&quot;font-size: 43px;&quot;&gt;Boton de login.&lt;/font&gt;&lt;/div&gt;" style="text;html=1;strokeColor=none;fillColor=none;spacing=5;spacingTop=-20;whiteSpace=wrap;overflow=hidden;rounded=0;" parent="1" vertex="1">
          <mxGeometry x="3678" y="2930" width="550" height="270" as="geometry" />
        </mxCell>
        <mxCell id="Lk0_g97--WdqBCXoRrSc-102" value="&lt;font style=&quot;font-size: 25px;&quot;&gt;Usuario valido&lt;/font&gt;" style="text;html=1;strokeColor=none;fillColor=none;align=center;verticalAlign=middle;whiteSpace=wrap;rounded=0;" parent="1" vertex="1">
          <mxGeometry x="3775.5" y="2750" width="160" height="40" as="geometry" />
        </mxCell>
        <mxCell id="Lk0_g97--WdqBCXoRrSc-105" value="&lt;font style=&quot;font-size: 24px;&quot;&gt;Usuario no valido&lt;/font&gt;" style="text;html=1;strokeColor=none;fillColor=none;align=center;verticalAlign=middle;whiteSpace=wrap;rounded=0;" parent="1" vertex="1">
          <mxGeometry x="4005.5" y="2740" width="190" height="40" as="geometry" />
        </mxCell>
        <mxCell id="Lk0_g97--WdqBCXoRrSc-110" value="" style="endArrow=classic;startArrow=classic;html=1;rounded=0;exitX=0.5;exitY=0;exitDx=0;exitDy=0;entryX=0.5;entryY=1;entryDx=0;entryDy=0;" parent="1" source="Lk0_g97--WdqBCXoRrSc-102" target="Lk0_g97--WdqBCXoRrSc-108" edge="1">
          <mxGeometry width="50" height="50" relative="1" as="geometry">
            <mxPoint x="3815.5" y="2740" as="sourcePoint" />
            <mxPoint x="3865.5" y="2690" as="targetPoint" />
          </mxGeometry>
        </mxCell>
        <mxCell id="Lk0_g97--WdqBCXoRrSc-111" value="" style="endArrow=classic;startArrow=classic;html=1;rounded=0;entryX=0.5;entryY=1;entryDx=0;entryDy=0;exitX=0.407;exitY=0.085;exitDx=0;exitDy=0;exitPerimeter=0;" parent="1" source="Lk0_g97--WdqBCXoRrSc-96" target="Lk0_g97--WdqBCXoRrSc-102" edge="1">
          <mxGeometry width="50" height="50" relative="1" as="geometry">
            <mxPoint x="3835.5" y="2850" as="sourcePoint" />
            <mxPoint x="3885.5" y="2800" as="targetPoint" />
          </mxGeometry>
        </mxCell>
        <mxCell id="Lk0_g97--WdqBCXoRrSc-112" value="" style="endArrow=classic;startArrow=classic;html=1;rounded=0;exitX=0.5;exitY=0;exitDx=0;exitDy=0;entryX=0.665;entryY=0.998;entryDx=0;entryDy=0;entryPerimeter=0;" parent="1" source="Lk0_g97--WdqBCXoRrSc-105" target="Lk0_g97--WdqBCXoRrSc-83" edge="1">
          <mxGeometry width="50" height="50" relative="1" as="geometry">
            <mxPoint x="4092" y="2750" as="sourcePoint" />
            <mxPoint x="4089" y="2690" as="targetPoint" />
          </mxGeometry>
        </mxCell>
        <mxCell id="Lk0_g97--WdqBCXoRrSc-113" value="" style="endArrow=classic;startArrow=classic;html=1;rounded=0;exitX=0.5;exitY=1;exitDx=0;exitDy=0;entryX=0.76;entryY=0.101;entryDx=0;entryDy=0;entryPerimeter=0;" parent="1" source="Lk0_g97--WdqBCXoRrSc-105" target="Lk0_g97--WdqBCXoRrSc-96" edge="1">
          <mxGeometry width="50" height="50" relative="1" as="geometry">
            <mxPoint x="4100.5" y="2760" as="sourcePoint" />
            <mxPoint x="4103.5" y="2703" as="targetPoint" />
          </mxGeometry>
        </mxCell>
        <mxCell id="_XUYrqoo8mhQpUJpbrl_-1" value="" style="group" parent="1" vertex="1" connectable="0">
          <mxGeometry x="3750" y="140" width="356" height="160" as="geometry" />
        </mxCell>
        <mxCell id="_XUYrqoo8mhQpUJpbrl_-2" value="API Camionero" style="shape=folder;fontStyle=1;spacingTop=10;tabWidth=50;tabHeight=17;tabPosition=left;html=1;rounded=0;shadow=0;comic=0;labelBackgroundColor=none;strokeWidth=1;fontFamily=Verdana;fontSize=10;align=center;" parent="_XUYrqoo8mhQpUJpbrl_-1" vertex="1">
          <mxGeometry width="356" height="160" as="geometry" />
        </mxCell>
        <mxCell id="_XUYrqoo8mhQpUJpbrl_-4" value="" style="group" parent="1" vertex="1" connectable="0">
          <mxGeometry x="3204" y="450" width="1490" height="220.5" as="geometry" />
        </mxCell>
        <mxCell id="_XUYrqoo8mhQpUJpbrl_-5" value="" style="shape=folder;fontStyle=1;spacingTop=10;tabWidth=123;tabHeight=24;tabPosition=left;html=1;rounded=0;shadow=0;comic=0;labelBackgroundColor=none;strokeWidth=1;fontFamily=Verdana;fontSize=10;align=center;" parent="_XUYrqoo8mhQpUJpbrl_-4" vertex="1">
          <mxGeometry width="280" height="130" as="geometry" />
        </mxCell>
        <mxCell id="_XUYrqoo8mhQpUJpbrl_-7" value="ID Camion&lt;br&gt;ID Lote&lt;br&gt;ID Destino&lt;br&gt;Estado&amp;nbsp; de envio" style="shape=folder;fontStyle=1;spacingTop=10;tabWidth=50;tabHeight=17;tabPosition=left;html=1;rounded=0;shadow=0;comic=0;labelBackgroundColor=none;strokeWidth=1;fontFamily=Verdana;fontSize=10;align=left;" parent="_XUYrqoo8mhQpUJpbrl_-4" vertex="1">
          <mxGeometry x="68.5" y="30" width="122" height="90" as="geometry" />
        </mxCell>
        <mxCell id="_XUYrqoo8mhQpUJpbrl_-8" value="Modelo De transporta" style="text;html=1;strokeColor=none;fillColor=none;align=center;verticalAlign=middle;whiteSpace=wrap;rounded=0;" parent="_XUYrqoo8mhQpUJpbrl_-4" vertex="1">
          <mxGeometry y="-8" width="109" height="40" as="geometry" />
        </mxCell>
        <mxCell id="_XUYrqoo8mhQpUJpbrl_-10" style="rounded=0;html=1;dashed=1;labelBackgroundColor=none;startFill=0;endArrow=open;endFill=0;endSize=10;fontFamily=Verdana;fontSize=10;entryX=0.533;entryY=0.198;entryDx=0;entryDy=0;entryPerimeter=0;" parent="1" source="_XUYrqoo8mhQpUJpbrl_-5" target="_XUYrqoo8mhQpUJpbrl_-12" edge="1">
          <mxGeometry relative="1" as="geometry">
            <mxPoint x="3676" y="650" as="targetPoint" />
          </mxGeometry>
        </mxCell>
        <mxCell id="_XUYrqoo8mhQpUJpbrl_-11" value="" style="group" parent="1" vertex="1" connectable="0">
          <mxGeometry x="3195" y="870" width="280" height="130" as="geometry" />
        </mxCell>
        <mxCell id="_XUYrqoo8mhQpUJpbrl_-12" value="" style="shape=folder;fontStyle=1;spacingTop=10;tabWidth=123;tabHeight=24;tabPosition=left;html=1;rounded=0;shadow=0;comic=0;labelBackgroundColor=none;strokeWidth=1;fontFamily=Verdana;fontSize=10;align=center;" parent="_XUYrqoo8mhQpUJpbrl_-11" vertex="1">
          <mxGeometry width="280" height="130" as="geometry" />
        </mxCell>
        <mxCell id="_XUYrqoo8mhQpUJpbrl_-14" value="" style="shape=folder;fontStyle=1;spacingTop=10;tabWidth=50;tabHeight=17;tabPosition=left;html=1;rounded=0;shadow=0;comic=0;labelBackgroundColor=none;strokeWidth=1;fontFamily=Verdana;fontSize=10;align=center;" parent="_XUYrqoo8mhQpUJpbrl_-11" vertex="1">
          <mxGeometry x="84" y="40" width="136" height="80" as="geometry" />
        </mxCell>
        <mxCell id="_XUYrqoo8mhQpUJpbrl_-15" value="Controlador de transporte" style="text;html=1;strokeColor=none;fillColor=none;align=center;verticalAlign=middle;whiteSpace=wrap;rounded=0;" parent="_XUYrqoo8mhQpUJpbrl_-11" vertex="1">
          <mxGeometry x="-4" y="-6.5" width="100" height="37" as="geometry" />
        </mxCell>
        <mxCell id="_XUYrqoo8mhQpUJpbrl_-16" value="&lt;span style=&quot;color: rgb(240, 240, 240); font-family: Verdana; font-size: 10px; font-style: normal; font-variant-ligatures: normal; font-variant-caps: normal; font-weight: 700; letter-spacing: normal; orphans: 2; text-align: center; text-indent: 0px; text-transform: none; widows: 2; word-spacing: 0px; -webkit-text-stroke-width: 0px; background-color: rgb(42, 37, 47); text-decoration-thickness: initial; text-decoration-style: initial; text-decoration-color: initial; float: none; display: inline !important;&quot;&gt;Validacion de datos y &lt;br&gt;establecimientos de rutas o urls&lt;/span&gt;" style="text;whiteSpace=wrap;html=1;" parent="_XUYrqoo8mhQpUJpbrl_-11" vertex="1">
          <mxGeometry x="90" y="65" width="124" height="52.5" as="geometry" />
        </mxCell>
        <mxCell id="_XUYrqoo8mhQpUJpbrl_-17" value="" style="group" parent="1" vertex="1" connectable="0">
          <mxGeometry x="3578" y="458" width="280" height="257" as="geometry" />
        </mxCell>
        <mxCell id="_XUYrqoo8mhQpUJpbrl_-18" value="" style="shape=folder;fontStyle=1;spacingTop=10;tabWidth=123;tabHeight=24;tabPosition=left;html=1;rounded=0;shadow=0;comic=0;labelBackgroundColor=none;strokeWidth=1;fontFamily=Verdana;fontSize=10;align=center;" parent="_XUYrqoo8mhQpUJpbrl_-17" vertex="1">
          <mxGeometry width="280" height="130" as="geometry" />
        </mxCell>
        <mxCell id="_XUYrqoo8mhQpUJpbrl_-20" value="ID Destino&lt;br&gt;ID Almacen&lt;br&gt;Tipo Trayecto&lt;br&gt;Fecha Trayecto" style="shape=folder;fontStyle=1;spacingTop=10;tabWidth=50;tabHeight=17;tabPosition=left;html=1;rounded=0;shadow=0;comic=0;labelBackgroundColor=none;strokeWidth=1;fontFamily=Verdana;fontSize=10;align=center;" parent="_XUYrqoo8mhQpUJpbrl_-17" vertex="1">
          <mxGeometry x="68.5" y="30" width="122" height="90" as="geometry" />
        </mxCell>
        <mxCell id="_XUYrqoo8mhQpUJpbrl_-21" value="Modelo De Recorrido" style="text;html=1;strokeColor=none;fillColor=none;align=center;verticalAlign=middle;whiteSpace=wrap;rounded=0;" parent="_XUYrqoo8mhQpUJpbrl_-17" vertex="1">
          <mxGeometry y="-8" width="109" height="40" as="geometry" />
        </mxCell>
        <mxCell id="_XUYrqoo8mhQpUJpbrl_-22" value="" style="group" parent="1" vertex="1" connectable="0">
          <mxGeometry x="3569" y="878" width="280" height="130" as="geometry" />
        </mxCell>
        <mxCell id="_XUYrqoo8mhQpUJpbrl_-23" value="" style="shape=folder;fontStyle=1;spacingTop=10;tabWidth=123;tabHeight=24;tabPosition=left;html=1;rounded=0;shadow=0;comic=0;labelBackgroundColor=none;strokeWidth=1;fontFamily=Verdana;fontSize=10;align=center;" parent="_XUYrqoo8mhQpUJpbrl_-22" vertex="1">
          <mxGeometry width="280" height="130" as="geometry" />
        </mxCell>
        <mxCell id="_XUYrqoo8mhQpUJpbrl_-25" value="" style="shape=folder;fontStyle=1;spacingTop=10;tabWidth=50;tabHeight=17;tabPosition=left;html=1;rounded=0;shadow=0;comic=0;labelBackgroundColor=none;strokeWidth=1;fontFamily=Verdana;fontSize=10;align=center;" parent="_XUYrqoo8mhQpUJpbrl_-22" vertex="1">
          <mxGeometry x="84" y="40" width="136" height="80" as="geometry" />
        </mxCell>
        <mxCell id="_XUYrqoo8mhQpUJpbrl_-26" value="Controlador de Recorrido" style="text;html=1;strokeColor=none;fillColor=none;align=center;verticalAlign=middle;whiteSpace=wrap;rounded=0;" parent="_XUYrqoo8mhQpUJpbrl_-22" vertex="1">
          <mxGeometry x="-4" y="-6.5" width="100" height="37" as="geometry" />
        </mxCell>
        <mxCell id="_XUYrqoo8mhQpUJpbrl_-27" value="&lt;span style=&quot;color: rgb(240, 240, 240); font-family: Verdana; font-size: 10px; font-style: normal; font-variant-ligatures: normal; font-variant-caps: normal; font-weight: 700; letter-spacing: normal; orphans: 2; text-align: center; text-indent: 0px; text-transform: none; widows: 2; word-spacing: 0px; -webkit-text-stroke-width: 0px; background-color: rgb(42, 37, 47); text-decoration-thickness: initial; text-decoration-style: initial; text-decoration-color: initial; float: none; display: inline !important;&quot;&gt;Validacion de datos y &lt;br&gt;establecimientos de rutas o urls&lt;/span&gt;" style="text;whiteSpace=wrap;html=1;" parent="_XUYrqoo8mhQpUJpbrl_-22" vertex="1">
          <mxGeometry x="90" y="65" width="124" height="52.5" as="geometry" />
        </mxCell>
        <mxCell id="_XUYrqoo8mhQpUJpbrl_-29" value="" style="group" parent="1" vertex="1" connectable="0">
          <mxGeometry x="3978" y="458" width="280" height="130" as="geometry" />
        </mxCell>
        <mxCell id="_XUYrqoo8mhQpUJpbrl_-30" value="" style="shape=folder;fontStyle=1;spacingTop=10;tabWidth=123;tabHeight=24;tabPosition=left;html=1;rounded=0;shadow=0;comic=0;labelBackgroundColor=none;strokeWidth=1;fontFamily=Verdana;fontSize=10;align=center;" parent="_XUYrqoo8mhQpUJpbrl_-29" vertex="1">
          <mxGeometry width="280" height="130" as="geometry" />
        </mxCell>
        <mxCell id="_XUYrqoo8mhQpUJpbrl_-32" value="ID Camion&lt;br&gt;ID Lote&lt;br&gt;Fecha Salida" style="shape=folder;fontStyle=1;spacingTop=10;tabWidth=50;tabHeight=17;tabPosition=left;html=1;rounded=0;shadow=0;comic=0;labelBackgroundColor=none;strokeWidth=1;fontFamily=Verdana;fontSize=10;align=center;" parent="_XUYrqoo8mhQpUJpbrl_-29" vertex="1">
          <mxGeometry x="68.5" y="30" width="122" height="90" as="geometry" />
        </mxCell>
        <mxCell id="_XUYrqoo8mhQpUJpbrl_-33" value="Modelo de Llevan" style="text;html=1;strokeColor=none;fillColor=none;align=center;verticalAlign=middle;whiteSpace=wrap;rounded=0;" parent="_XUYrqoo8mhQpUJpbrl_-29" vertex="1">
          <mxGeometry y="-8" width="109" height="40" as="geometry" />
        </mxCell>
        <mxCell id="_XUYrqoo8mhQpUJpbrl_-34" value="" style="group" parent="1" vertex="1" connectable="0">
          <mxGeometry x="3969" y="878" width="280" height="130" as="geometry" />
        </mxCell>
        <mxCell id="_XUYrqoo8mhQpUJpbrl_-35" value="" style="shape=folder;fontStyle=1;spacingTop=10;tabWidth=123;tabHeight=24;tabPosition=left;html=1;rounded=0;shadow=0;comic=0;labelBackgroundColor=none;strokeWidth=1;fontFamily=Verdana;fontSize=10;align=center;" parent="_XUYrqoo8mhQpUJpbrl_-34" vertex="1">
          <mxGeometry width="280" height="130" as="geometry" />
        </mxCell>
        <mxCell id="_XUYrqoo8mhQpUJpbrl_-37" value="" style="shape=folder;fontStyle=1;spacingTop=10;tabWidth=50;tabHeight=17;tabPosition=left;html=1;rounded=0;shadow=0;comic=0;labelBackgroundColor=none;strokeWidth=1;fontFamily=Verdana;fontSize=10;align=center;" parent="_XUYrqoo8mhQpUJpbrl_-34" vertex="1">
          <mxGeometry x="84" y="40" width="136" height="80" as="geometry" />
        </mxCell>
        <mxCell id="_XUYrqoo8mhQpUJpbrl_-38" value="Controlador de Llevan" style="text;html=1;strokeColor=none;fillColor=none;align=center;verticalAlign=middle;whiteSpace=wrap;rounded=0;" parent="_XUYrqoo8mhQpUJpbrl_-34" vertex="1">
          <mxGeometry x="-4" y="-6.5" width="100" height="37" as="geometry" />
        </mxCell>
        <mxCell id="_XUYrqoo8mhQpUJpbrl_-39" value="&lt;span style=&quot;color: rgb(240, 240, 240); font-family: Verdana; font-size: 10px; font-style: normal; font-variant-ligatures: normal; font-variant-caps: normal; font-weight: 700; letter-spacing: normal; orphans: 2; text-align: center; text-indent: 0px; text-transform: none; widows: 2; word-spacing: 0px; -webkit-text-stroke-width: 0px; background-color: rgb(42, 37, 47); text-decoration-thickness: initial; text-decoration-style: initial; text-decoration-color: initial; float: none; display: inline !important;&quot;&gt;Validacion de datos y &lt;br&gt;establecimientos de rutas o urls&lt;/span&gt;" style="text;whiteSpace=wrap;html=1;" parent="_XUYrqoo8mhQpUJpbrl_-34" vertex="1">
          <mxGeometry x="90" y="65" width="124" height="52.5" as="geometry" />
        </mxCell>
        <mxCell id="_XUYrqoo8mhQpUJpbrl_-40" style="rounded=0;html=1;dashed=1;labelBackgroundColor=none;startFill=0;endArrow=open;endFill=0;endSize=10;fontFamily=Verdana;fontSize=10;edgeStyle=elbowEdgeStyle;exitX=0.685;exitY=1.006;exitDx=0;exitDy=0;exitPerimeter=0;" parent="1" source="_XUYrqoo8mhQpUJpbrl_-2" target="RyL7KmwlNNh2GB8NotcJ-10" edge="1">
          <mxGeometry relative="1" as="geometry">
            <mxPoint x="3799" y="240" as="sourcePoint" />
            <mxPoint x="3748" y="492" as="targetPoint" />
            <Array as="points">
              <mxPoint x="3994" y="380" />
            </Array>
          </mxGeometry>
        </mxCell>
        <mxCell id="_XUYrqoo8mhQpUJpbrl_-41" value="" style="group" parent="1" vertex="1" connectable="0">
          <mxGeometry x="4328" y="468" width="670" height="157" as="geometry" />
        </mxCell>
        <mxCell id="_XUYrqoo8mhQpUJpbrl_-42" value="" style="shape=folder;fontStyle=1;spacingTop=10;tabWidth=123;tabHeight=24;tabPosition=left;html=1;rounded=0;shadow=0;comic=0;labelBackgroundColor=none;strokeWidth=1;fontFamily=Verdana;fontSize=10;align=center;" parent="_XUYrqoo8mhQpUJpbrl_-41" vertex="1">
          <mxGeometry width="280" height="130" as="geometry" />
        </mxCell>
        <mxCell id="_XUYrqoo8mhQpUJpbrl_-44" value="ID Destino&lt;br&gt;Calle&lt;br&gt;Num&lt;br&gt;Esq&lt;br&gt;Bajalogica&lt;br&gt;" style="shape=folder;fontStyle=1;spacingTop=10;tabWidth=50;tabHeight=17;tabPosition=left;html=1;rounded=0;shadow=0;comic=0;labelBackgroundColor=none;strokeWidth=1;fontFamily=Verdana;fontSize=10;align=center;" parent="_XUYrqoo8mhQpUJpbrl_-41" vertex="1">
          <mxGeometry x="68.5" y="30" width="122" height="90" as="geometry" />
        </mxCell>
        <mxCell id="_XUYrqoo8mhQpUJpbrl_-45" value="Modelo de Destino&lt;br&gt;" style="text;html=1;strokeColor=none;fillColor=none;align=center;verticalAlign=middle;whiteSpace=wrap;rounded=0;" parent="_XUYrqoo8mhQpUJpbrl_-41" vertex="1">
          <mxGeometry y="-8" width="109" height="40" as="geometry" />
        </mxCell>
        <mxCell id="RyL7KmwlNNh2GB8NotcJ-10" value="" style="shape=folder;fontStyle=1;spacingTop=10;tabWidth=123;tabHeight=24;tabPosition=left;html=1;rounded=0;shadow=0;comic=0;labelBackgroundColor=none;strokeWidth=1;fontFamily=Verdana;fontSize=10;align=center;fillColor=none;" parent="_XUYrqoo8mhQpUJpbrl_-41" vertex="1">
          <mxGeometry x="-1148" y="-68" width="1818" height="225" as="geometry" />
        </mxCell>
        <mxCell id="_XUYrqoo8mhQpUJpbrl_-63" value="&lt;font style=&quot;font-size: 14px;&quot;&gt;Logica del negocio&lt;/font&gt;" style="text;html=1;strokeColor=none;fillColor=none;align=center;verticalAlign=middle;whiteSpace=wrap;rounded=0;" parent="_XUYrqoo8mhQpUJpbrl_-41" vertex="1">
          <mxGeometry x="-1328" y="-68" width="480" height="30" as="geometry" />
        </mxCell>
        <mxCell id="_XUYrqoo8mhQpUJpbrl_-46" value="" style="group" parent="1" vertex="1" connectable="0">
          <mxGeometry x="4319" y="888" width="280" height="130" as="geometry" />
        </mxCell>
        <mxCell id="_XUYrqoo8mhQpUJpbrl_-47" value="" style="shape=folder;fontStyle=1;spacingTop=10;tabWidth=123;tabHeight=24;tabPosition=left;html=1;rounded=0;shadow=0;comic=0;labelBackgroundColor=none;strokeWidth=1;fontFamily=Verdana;fontSize=10;align=center;" parent="_XUYrqoo8mhQpUJpbrl_-46" vertex="1">
          <mxGeometry width="280" height="130" as="geometry" />
        </mxCell>
        <mxCell id="_XUYrqoo8mhQpUJpbrl_-49" value="" style="shape=folder;fontStyle=1;spacingTop=10;tabWidth=50;tabHeight=17;tabPosition=left;html=1;rounded=0;shadow=0;comic=0;labelBackgroundColor=none;strokeWidth=1;fontFamily=Verdana;fontSize=10;align=center;" parent="_XUYrqoo8mhQpUJpbrl_-46" vertex="1">
          <mxGeometry x="84" y="40" width="136" height="80" as="geometry" />
        </mxCell>
        <mxCell id="_XUYrqoo8mhQpUJpbrl_-50" value="Controlador de Destino" style="text;html=1;strokeColor=none;fillColor=none;align=center;verticalAlign=middle;whiteSpace=wrap;rounded=0;" parent="_XUYrqoo8mhQpUJpbrl_-46" vertex="1">
          <mxGeometry x="-4" y="-6.5" width="100" height="37" as="geometry" />
        </mxCell>
        <mxCell id="_XUYrqoo8mhQpUJpbrl_-51" value="&lt;span style=&quot;color: rgb(240, 240, 240); font-family: Verdana; font-size: 10px; font-style: normal; font-variant-ligatures: normal; font-variant-caps: normal; font-weight: 700; letter-spacing: normal; orphans: 2; text-align: center; text-indent: 0px; text-transform: none; widows: 2; word-spacing: 0px; -webkit-text-stroke-width: 0px; background-color: rgb(42, 37, 47); text-decoration-thickness: initial; text-decoration-style: initial; text-decoration-color: initial; float: none; display: inline !important;&quot;&gt;Validacion de datos y &lt;br&gt;establecimientos de rutas o urls&lt;/span&gt;" style="text;whiteSpace=wrap;html=1;" parent="_XUYrqoo8mhQpUJpbrl_-46" vertex="1">
          <mxGeometry x="90" y="65" width="124" height="52.5" as="geometry" />
        </mxCell>
        <mxCell id="_XUYrqoo8mhQpUJpbrl_-54" style="rounded=0;html=1;dashed=1;labelBackgroundColor=none;startFill=0;endArrow=open;endFill=0;endSize=10;fontFamily=Verdana;fontSize=10;entryX=0.375;entryY=-0.023;edgeStyle=elbowEdgeStyle;entryDx=0;entryDy=0;exitX=0.5;exitY=1;exitDx=0;exitDy=0;exitPerimeter=0;entryPerimeter=0;" parent="1" source="_XUYrqoo8mhQpUJpbrl_-18" target="_XUYrqoo8mhQpUJpbrl_-23" edge="1">
          <mxGeometry relative="1" as="geometry">
            <mxPoint x="3864" y="227" as="sourcePoint" />
            <mxPoint x="4043" y="460" as="targetPoint" />
            <Array as="points">
              <mxPoint x="3718" y="710" />
            </Array>
          </mxGeometry>
        </mxCell>
        <mxCell id="_XUYrqoo8mhQpUJpbrl_-55" style="rounded=0;html=1;dashed=1;labelBackgroundColor=none;startFill=0;endArrow=open;endFill=0;endSize=10;fontFamily=Verdana;fontSize=10;entryX=0.75;entryY=0;edgeStyle=elbowEdgeStyle;entryDx=0;entryDy=0;exitX=0.5;exitY=1;exitDx=0;exitDy=0;exitPerimeter=0;" parent="1" source="_XUYrqoo8mhQpUJpbrl_-30" target="_XUYrqoo8mhQpUJpbrl_-38" edge="1">
          <mxGeometry relative="1" as="geometry">
            <mxPoint x="4144" y="670.5" as="sourcePoint" />
            <mxPoint x="4100" y="957.5" as="targetPoint" />
            <Array as="points">
              <mxPoint x="4050" y="740" />
            </Array>
          </mxGeometry>
        </mxCell>
        <mxCell id="_XUYrqoo8mhQpUJpbrl_-56" style="rounded=0;html=1;dashed=1;labelBackgroundColor=none;startFill=0;endArrow=open;endFill=0;endSize=10;fontFamily=Verdana;fontSize=10;entryX=0.75;entryY=0;edgeStyle=elbowEdgeStyle;entryDx=0;entryDy=0;" parent="1" source="_XUYrqoo8mhQpUJpbrl_-42" target="_XUYrqoo8mhQpUJpbrl_-50" edge="1">
          <mxGeometry relative="1" as="geometry">
            <mxPoint x="4518" y="630" as="sourcePoint" />
            <mxPoint x="4440" y="914" as="targetPoint" />
            <Array as="points" />
          </mxGeometry>
        </mxCell>
        <mxCell id="_XUYrqoo8mhQpUJpbrl_-57" value="" style="group" parent="1" vertex="1" connectable="0">
          <mxGeometry x="3268" y="1630" width="1260" height="210" as="geometry" />
        </mxCell>
        <mxCell id="_XUYrqoo8mhQpUJpbrl_-58" value="" style="shape=folder;fontStyle=1;spacingTop=10;tabWidth=123;tabHeight=24;tabPosition=left;html=1;rounded=0;shadow=0;comic=0;labelBackgroundColor=none;strokeWidth=1;fontFamily=Verdana;fontSize=10;align=center;" parent="_XUYrqoo8mhQpUJpbrl_-57" vertex="1">
          <mxGeometry width="1260" height="210" as="geometry" />
        </mxCell>
        <mxCell id="_XUYrqoo8mhQpUJpbrl_-59" value="" style="shape=folder;fontStyle=1;spacingTop=10;tabWidth=50;tabHeight=17;tabPosition=left;html=1;rounded=0;shadow=0;comic=0;labelBackgroundColor=none;strokeWidth=1;fontFamily=Verdana;fontSize=10;align=center;" parent="_XUYrqoo8mhQpUJpbrl_-57" vertex="1">
          <mxGeometry x="378" y="46.15" width="612" height="133.85" as="geometry" />
        </mxCell>
        <mxCell id="_XUYrqoo8mhQpUJpbrl_-60" value="Interfaz camionero" style="text;html=1;strokeColor=none;fillColor=none;align=center;verticalAlign=middle;whiteSpace=wrap;rounded=0;" parent="_XUYrqoo8mhQpUJpbrl_-57" vertex="1">
          <mxGeometry x="-30" y="-7.5" width="180" height="42.69" as="geometry" />
        </mxCell>
        <mxCell id="_XUYrqoo8mhQpUJpbrl_-61" value="&lt;div style=&quot;font-size: 15px;&quot;&gt;&lt;font color=&quot;#ffffff&quot; face=&quot;Verdana&quot;&gt;&lt;span style=&quot;background-color: rgb(42, 37, 47);&quot;&gt;&lt;b style=&quot;&quot;&gt;Ventana para visualizar los lotes&amp;nbsp; y productos cargados.&lt;/b&gt;&lt;/span&gt;&lt;/font&gt;&lt;/div&gt;&lt;div style=&quot;font-size: 15px;&quot;&gt;&lt;font color=&quot;#ffffff&quot; face=&quot;Verdana&quot;&gt;&lt;span style=&quot;background-color: rgb(42, 37, 47);&quot;&gt;&lt;b style=&quot;&quot;&gt;Ventana para visualizar el trayecto y tipo de trayecto de cada lote.&lt;/b&gt;&lt;/span&gt;&lt;/font&gt;&lt;/div&gt;" style="text;whiteSpace=wrap;html=1;align=left;" parent="_XUYrqoo8mhQpUJpbrl_-57" vertex="1">
          <mxGeometry x="405" y="75" width="415" height="95" as="geometry" />
        </mxCell>
        <mxCell id="_XUYrqoo8mhQpUJpbrl_-62" value="&lt;font style=&quot;font-size: 7px;&quot;&gt;Ventanas-Gui&lt;/font&gt;" style="text;html=1;strokeColor=none;fillColor=none;align=center;verticalAlign=middle;whiteSpace=wrap;rounded=0;" parent="_XUYrqoo8mhQpUJpbrl_-57" vertex="1">
          <mxGeometry x="350" y="46.15" width="100" height="20" as="geometry" />
        </mxCell>
        <mxCell id="_XUYrqoo8mhQpUJpbrl_-64" value="&lt;font style=&quot;font-size: 10px;&quot;&gt;Interprete de datos recibidos&lt;/font&gt;" style="text;html=1;strokeColor=none;fillColor=none;align=center;verticalAlign=middle;whiteSpace=wrap;rounded=0;" parent="1" vertex="1">
          <mxGeometry x="2980" y="758" width="480" height="140" as="geometry" />
        </mxCell>
        <mxCell id="_XUYrqoo8mhQpUJpbrl_-74" value="" style="group" parent="1" vertex="1" connectable="0">
          <mxGeometry x="4699" y="478" width="280" height="130" as="geometry" />
        </mxCell>
        <mxCell id="_XUYrqoo8mhQpUJpbrl_-75" value="" style="shape=folder;fontStyle=1;spacingTop=10;tabWidth=123;tabHeight=24;tabPosition=left;html=1;rounded=0;shadow=0;comic=0;labelBackgroundColor=none;strokeWidth=1;fontFamily=Verdana;fontSize=10;align=center;" parent="_XUYrqoo8mhQpUJpbrl_-74" vertex="1">
          <mxGeometry width="280" height="130" as="geometry" />
        </mxCell>
        <mxCell id="_XUYrqoo8mhQpUJpbrl_-77" value="ID Camionero&lt;br&gt;ID Camion" style="shape=folder;fontStyle=1;spacingTop=10;tabWidth=50;tabHeight=17;tabPosition=left;html=1;rounded=0;shadow=0;comic=0;labelBackgroundColor=none;strokeWidth=1;fontFamily=Verdana;fontSize=10;align=center;" parent="_XUYrqoo8mhQpUJpbrl_-74" vertex="1">
          <mxGeometry x="68.5" y="30" width="122" height="90" as="geometry" />
        </mxCell>
        <mxCell id="_XUYrqoo8mhQpUJpbrl_-78" value="Modelo de Conduce" style="text;html=1;strokeColor=none;fillColor=none;align=center;verticalAlign=middle;whiteSpace=wrap;rounded=0;" parent="_XUYrqoo8mhQpUJpbrl_-74" vertex="1">
          <mxGeometry y="-8" width="109" height="40" as="geometry" />
        </mxCell>
        <mxCell id="_XUYrqoo8mhQpUJpbrl_-79" value="" style="group" parent="1" vertex="1" connectable="0">
          <mxGeometry x="4690" y="898" width="280" height="130" as="geometry" />
        </mxCell>
        <mxCell id="_XUYrqoo8mhQpUJpbrl_-80" value="" style="shape=folder;fontStyle=1;spacingTop=10;tabWidth=123;tabHeight=24;tabPosition=left;html=1;rounded=0;shadow=0;comic=0;labelBackgroundColor=none;strokeWidth=1;fontFamily=Verdana;fontSize=10;align=center;" parent="_XUYrqoo8mhQpUJpbrl_-79" vertex="1">
          <mxGeometry width="280" height="130" as="geometry" />
        </mxCell>
        <mxCell id="_XUYrqoo8mhQpUJpbrl_-82" value="" style="shape=folder;fontStyle=1;spacingTop=10;tabWidth=50;tabHeight=17;tabPosition=left;html=1;rounded=0;shadow=0;comic=0;labelBackgroundColor=none;strokeWidth=1;fontFamily=Verdana;fontSize=10;align=center;" parent="_XUYrqoo8mhQpUJpbrl_-79" vertex="1">
          <mxGeometry x="84" y="40" width="136" height="80" as="geometry" />
        </mxCell>
        <mxCell id="_XUYrqoo8mhQpUJpbrl_-83" value="Controlador de Conduce" style="text;html=1;strokeColor=none;fillColor=none;align=center;verticalAlign=middle;whiteSpace=wrap;rounded=0;" parent="_XUYrqoo8mhQpUJpbrl_-79" vertex="1">
          <mxGeometry x="-4" y="-6.5" width="100" height="37" as="geometry" />
        </mxCell>
        <mxCell id="_XUYrqoo8mhQpUJpbrl_-84" value="&lt;span style=&quot;color: rgb(240, 240, 240); font-family: Verdana; font-size: 10px; font-style: normal; font-variant-ligatures: normal; font-variant-caps: normal; font-weight: 700; letter-spacing: normal; orphans: 2; text-align: center; text-indent: 0px; text-transform: none; widows: 2; word-spacing: 0px; -webkit-text-stroke-width: 0px; background-color: rgb(42, 37, 47); text-decoration-thickness: initial; text-decoration-style: initial; text-decoration-color: initial; float: none; display: inline !important;&quot;&gt;Validacion de datos y &lt;br&gt;establecimientos de rutas o urls&lt;/span&gt;" style="text;whiteSpace=wrap;html=1;" parent="_XUYrqoo8mhQpUJpbrl_-79" vertex="1">
          <mxGeometry x="90" y="65" width="124" height="52.5" as="geometry" />
        </mxCell>
        <mxCell id="_XUYrqoo8mhQpUJpbrl_-85" style="rounded=0;html=1;dashed=1;labelBackgroundColor=none;startFill=0;endArrow=open;endFill=0;endSize=10;fontFamily=Verdana;fontSize=10;entryX=0.75;entryY=0;edgeStyle=elbowEdgeStyle;entryDx=0;entryDy=0;" parent="1" source="_XUYrqoo8mhQpUJpbrl_-75" target="_XUYrqoo8mhQpUJpbrl_-83" edge="1">
          <mxGeometry relative="1" as="geometry">
            <mxPoint x="4889" y="640" as="sourcePoint" />
            <mxPoint x="4811" y="924" as="targetPoint" />
            <Array as="points" />
          </mxGeometry>
        </mxCell>
        <mxCell id="_XUYrqoo8mhQpUJpbrl_-89" value="" style="group" parent="1" vertex="1" connectable="0">
          <mxGeometry x="7140" y="240" width="356" height="160" as="geometry" />
        </mxCell>
        <mxCell id="_XUYrqoo8mhQpUJpbrl_-90" value="API Seguimiento" style="shape=folder;fontStyle=1;spacingTop=10;tabWidth=50;tabHeight=17;tabPosition=left;html=1;rounded=0;shadow=0;comic=0;labelBackgroundColor=none;strokeWidth=1;fontFamily=Verdana;fontSize=10;align=center;" parent="_XUYrqoo8mhQpUJpbrl_-89" vertex="1">
          <mxGeometry width="356" height="160" as="geometry" />
        </mxCell>
        <mxCell id="_XUYrqoo8mhQpUJpbrl_-105" value="" style="group" parent="1" vertex="1" connectable="0">
          <mxGeometry x="6968" y="558" width="280" height="130" as="geometry" />
        </mxCell>
        <mxCell id="_XUYrqoo8mhQpUJpbrl_-106" value="" style="shape=folder;fontStyle=1;spacingTop=10;tabWidth=123;tabHeight=24;tabPosition=left;html=1;rounded=0;shadow=0;comic=0;labelBackgroundColor=none;strokeWidth=1;fontFamily=Verdana;fontSize=10;align=center;" parent="_XUYrqoo8mhQpUJpbrl_-105" vertex="1">
          <mxGeometry width="280" height="130" as="geometry" />
        </mxCell>
        <mxCell id="_XUYrqoo8mhQpUJpbrl_-108" value="ID Camion&lt;br&gt;ID Lote&lt;br&gt;ID Destino&lt;br&gt;Estado" style="shape=folder;fontStyle=1;spacingTop=10;tabWidth=50;tabHeight=17;tabPosition=left;html=1;rounded=0;shadow=0;comic=0;labelBackgroundColor=none;strokeWidth=1;fontFamily=Verdana;fontSize=10;align=center;" parent="_XUYrqoo8mhQpUJpbrl_-105" vertex="1">
          <mxGeometry x="68.5" y="30" width="122" height="90" as="geometry" />
        </mxCell>
        <mxCell id="_XUYrqoo8mhQpUJpbrl_-109" value="Modelo de Transporta" style="text;html=1;strokeColor=none;fillColor=none;align=center;verticalAlign=middle;whiteSpace=wrap;rounded=0;" parent="_XUYrqoo8mhQpUJpbrl_-105" vertex="1">
          <mxGeometry y="-10" width="120" height="40" as="geometry" />
        </mxCell>
        <mxCell id="_XUYrqoo8mhQpUJpbrl_-110" value="" style="group" parent="1" vertex="1" connectable="0">
          <mxGeometry x="6959" y="978" width="280" height="130" as="geometry" />
        </mxCell>
        <mxCell id="_XUYrqoo8mhQpUJpbrl_-111" value="" style="shape=folder;fontStyle=1;spacingTop=10;tabWidth=123;tabHeight=24;tabPosition=left;html=1;rounded=0;shadow=0;comic=0;labelBackgroundColor=none;strokeWidth=1;fontFamily=Verdana;fontSize=10;align=center;" parent="_XUYrqoo8mhQpUJpbrl_-110" vertex="1">
          <mxGeometry width="280" height="130" as="geometry" />
        </mxCell>
        <mxCell id="_XUYrqoo8mhQpUJpbrl_-113" value="" style="shape=folder;fontStyle=1;spacingTop=10;tabWidth=50;tabHeight=17;tabPosition=left;html=1;rounded=0;shadow=0;comic=0;labelBackgroundColor=none;strokeWidth=1;fontFamily=Verdana;fontSize=10;align=center;" parent="_XUYrqoo8mhQpUJpbrl_-110" vertex="1">
          <mxGeometry x="84" y="40" width="136" height="80" as="geometry" />
        </mxCell>
        <mxCell id="_XUYrqoo8mhQpUJpbrl_-114" value="Controlador de Transporta" style="text;html=1;strokeColor=none;fillColor=none;align=center;verticalAlign=middle;whiteSpace=wrap;rounded=0;" parent="_XUYrqoo8mhQpUJpbrl_-110" vertex="1">
          <mxGeometry x="-4" y="-6.5" width="100" height="37" as="geometry" />
        </mxCell>
        <mxCell id="_XUYrqoo8mhQpUJpbrl_-115" value="&lt;span style=&quot;color: rgb(240, 240, 240); font-family: Verdana; font-size: 10px; font-style: normal; font-variant-ligatures: normal; font-variant-caps: normal; font-weight: 700; letter-spacing: normal; orphans: 2; text-align: center; text-indent: 0px; text-transform: none; widows: 2; word-spacing: 0px; -webkit-text-stroke-width: 0px; background-color: rgb(42, 37, 47); text-decoration-thickness: initial; text-decoration-style: initial; text-decoration-color: initial; float: none; display: inline !important;&quot;&gt;Validacion de datos y &lt;br&gt;establecimientos de rutas o urls&lt;/span&gt;" style="text;whiteSpace=wrap;html=1;" parent="_XUYrqoo8mhQpUJpbrl_-110" vertex="1">
          <mxGeometry x="90" y="65" width="124" height="52.5" as="geometry" />
        </mxCell>
        <mxCell id="_XUYrqoo8mhQpUJpbrl_-116" style="rounded=0;html=1;dashed=1;labelBackgroundColor=none;startFill=0;endArrow=open;endFill=0;endSize=10;fontFamily=Verdana;fontSize=10;edgeStyle=elbowEdgeStyle;exitX=0.5;exitY=1;exitDx=0;exitDy=0;exitPerimeter=0;" parent="1" source="_XUYrqoo8mhQpUJpbrl_-90" target="RyL7KmwlNNh2GB8NotcJ-14" edge="1">
          <mxGeometry relative="1" as="geometry">
            <mxPoint x="7024" y="450" as="sourcePoint" />
            <mxPoint x="7090" y="400" as="targetPoint" />
          </mxGeometry>
        </mxCell>
        <mxCell id="_XUYrqoo8mhQpUJpbrl_-117" value="" style="group" parent="1" vertex="1" connectable="0">
          <mxGeometry x="7368" y="558" width="280" height="130" as="geometry" />
        </mxCell>
        <mxCell id="_XUYrqoo8mhQpUJpbrl_-118" value="" style="shape=folder;fontStyle=1;spacingTop=10;tabWidth=123;tabHeight=24;tabPosition=left;html=1;rounded=0;shadow=0;comic=0;labelBackgroundColor=none;strokeWidth=1;fontFamily=Verdana;fontSize=10;align=center;" parent="_XUYrqoo8mhQpUJpbrl_-117" vertex="1">
          <mxGeometry width="280" height="130" as="geometry" />
        </mxCell>
        <mxCell id="_XUYrqoo8mhQpUJpbrl_-120" value="ID Destino&lt;br&gt;Calle&lt;br&gt;Num&lt;br&gt;Esq&lt;br&gt;Bajalogica" style="shape=folder;fontStyle=1;spacingTop=10;tabWidth=50;tabHeight=17;tabPosition=left;html=1;rounded=0;shadow=0;comic=0;labelBackgroundColor=none;strokeWidth=1;fontFamily=Verdana;fontSize=10;align=center;" parent="_XUYrqoo8mhQpUJpbrl_-117" vertex="1">
          <mxGeometry x="68.5" y="30" width="122" height="90" as="geometry" />
        </mxCell>
        <mxCell id="_XUYrqoo8mhQpUJpbrl_-121" value="Modelo de Destino" style="text;html=1;strokeColor=none;fillColor=none;align=center;verticalAlign=middle;whiteSpace=wrap;rounded=0;" parent="_XUYrqoo8mhQpUJpbrl_-117" vertex="1">
          <mxGeometry y="-8" width="109" height="40" as="geometry" />
        </mxCell>
        <mxCell id="_XUYrqoo8mhQpUJpbrl_-122" value="" style="group" parent="1" vertex="1" connectable="0">
          <mxGeometry x="7359" y="978" width="280" height="130" as="geometry" />
        </mxCell>
        <mxCell id="_XUYrqoo8mhQpUJpbrl_-123" value="" style="shape=folder;fontStyle=1;spacingTop=10;tabWidth=123;tabHeight=24;tabPosition=left;html=1;rounded=0;shadow=0;comic=0;labelBackgroundColor=none;strokeWidth=1;fontFamily=Verdana;fontSize=10;align=center;" parent="_XUYrqoo8mhQpUJpbrl_-122" vertex="1">
          <mxGeometry width="280" height="130" as="geometry" />
        </mxCell>
        <mxCell id="_XUYrqoo8mhQpUJpbrl_-125" value="" style="shape=folder;fontStyle=1;spacingTop=10;tabWidth=50;tabHeight=17;tabPosition=left;html=1;rounded=0;shadow=0;comic=0;labelBackgroundColor=none;strokeWidth=1;fontFamily=Verdana;fontSize=10;align=center;" parent="_XUYrqoo8mhQpUJpbrl_-122" vertex="1">
          <mxGeometry x="84" y="40" width="136" height="80" as="geometry" />
        </mxCell>
        <mxCell id="_XUYrqoo8mhQpUJpbrl_-126" value="Controlador de Destino" style="text;html=1;strokeColor=none;fillColor=none;align=center;verticalAlign=middle;whiteSpace=wrap;rounded=0;" parent="_XUYrqoo8mhQpUJpbrl_-122" vertex="1">
          <mxGeometry x="-4" y="-6.5" width="100" height="37" as="geometry" />
        </mxCell>
        <mxCell id="_XUYrqoo8mhQpUJpbrl_-127" value="&lt;span style=&quot;color: rgb(240, 240, 240); font-family: Verdana; font-size: 10px; font-style: normal; font-variant-ligatures: normal; font-variant-caps: normal; font-weight: 700; letter-spacing: normal; orphans: 2; text-align: center; text-indent: 0px; text-transform: none; widows: 2; word-spacing: 0px; -webkit-text-stroke-width: 0px; background-color: rgb(42, 37, 47); text-decoration-thickness: initial; text-decoration-style: initial; text-decoration-color: initial; float: none; display: inline !important;&quot;&gt;Validacion de datos y &lt;br&gt;establecimientos de rutas o urls&lt;/span&gt;" style="text;whiteSpace=wrap;html=1;" parent="_XUYrqoo8mhQpUJpbrl_-122" vertex="1">
          <mxGeometry x="90" y="65" width="124" height="52.5" as="geometry" />
        </mxCell>
        <mxCell id="_XUYrqoo8mhQpUJpbrl_-142" style="rounded=0;html=1;dashed=1;labelBackgroundColor=none;startFill=0;endArrow=open;endFill=0;endSize=10;fontFamily=Verdana;fontSize=10;entryX=0.375;entryY=-0.023;edgeStyle=elbowEdgeStyle;entryDx=0;entryDy=0;exitX=0.5;exitY=1;exitDx=0;exitDy=0;exitPerimeter=0;entryPerimeter=0;" parent="1" source="_XUYrqoo8mhQpUJpbrl_-106" target="_XUYrqoo8mhQpUJpbrl_-111" edge="1">
          <mxGeometry relative="1" as="geometry">
            <mxPoint x="7254" y="327" as="sourcePoint" />
            <mxPoint x="7433" y="560" as="targetPoint" />
            <Array as="points">
              <mxPoint x="7108" y="810" />
            </Array>
          </mxGeometry>
        </mxCell>
        <mxCell id="_XUYrqoo8mhQpUJpbrl_-143" style="rounded=0;html=1;dashed=1;labelBackgroundColor=none;startFill=0;endArrow=open;endFill=0;endSize=10;fontFamily=Verdana;fontSize=10;edgeStyle=elbowEdgeStyle;exitX=0.5;exitY=1;exitDx=0;exitDy=0;exitPerimeter=0;" parent="1" source="_XUYrqoo8mhQpUJpbrl_-118" edge="1">
          <mxGeometry relative="1" as="geometry">
            <mxPoint x="7534" y="770.5" as="sourcePoint" />
            <mxPoint x="7450" y="980" as="targetPoint" />
            <Array as="points">
              <mxPoint x="7440" y="840" />
            </Array>
          </mxGeometry>
        </mxCell>
        <mxCell id="_XUYrqoo8mhQpUJpbrl_-151" value="&lt;font style=&quot;font-size: 12px;&quot;&gt;Logica del negocio&lt;/font&gt;" style="text;html=1;strokeColor=none;fillColor=none;align=center;verticalAlign=middle;whiteSpace=wrap;rounded=0;" parent="1" vertex="1">
          <mxGeometry x="6768" y="498" width="480" height="30" as="geometry" />
        </mxCell>
        <mxCell id="_XUYrqoo8mhQpUJpbrl_-152" value="&lt;font style=&quot;font-size: 10px;&quot;&gt;Interprete de datos recibidos&lt;/font&gt;" style="text;html=1;strokeColor=none;fillColor=none;align=center;verticalAlign=middle;whiteSpace=wrap;rounded=0;" parent="1" vertex="1">
          <mxGeometry x="6928" y="916" width="160" height="42" as="geometry" />
        </mxCell>
        <mxCell id="RyL7KmwlNNh2GB8NotcJ-3" value="" style="shape=folder;fontStyle=1;spacingTop=10;tabWidth=123;tabHeight=24;tabPosition=left;html=1;rounded=0;shadow=0;comic=0;labelBackgroundColor=none;strokeWidth=1;fontFamily=Verdana;fontSize=10;align=center;fillColor=none;" parent="1" vertex="1">
          <mxGeometry x="716" y="770.5" width="1504" height="209.5" as="geometry" />
        </mxCell>
        <mxCell id="RyL7KmwlNNh2GB8NotcJ-9" style="rounded=0;html=1;dashed=1;labelBackgroundColor=none;startFill=0;endArrow=open;endFill=0;endSize=10;fontFamily=Verdana;fontSize=10;edgeStyle=elbowEdgeStyle;entryX=0.1;entryY=0.048;entryDx=0;entryDy=0;entryPerimeter=0;" parent="1" source="RyL7KmwlNNh2GB8NotcJ-3" target="RyL7KmwlNNh2GB8NotcJ-4" edge="1">
          <mxGeometry relative="1" as="geometry">
            <mxPoint x="1298" y="538" as="sourcePoint" />
            <mxPoint x="1468" y="1480" as="targetPoint" />
            <Array as="points">
              <mxPoint x="1460" y="1230" />
            </Array>
          </mxGeometry>
        </mxCell>
        <mxCell id="RyL7KmwlNNh2GB8NotcJ-11" value="" style="shape=folder;fontStyle=1;spacingTop=10;tabWidth=123;tabHeight=24;tabPosition=left;html=1;rounded=0;shadow=0;comic=0;labelBackgroundColor=none;strokeWidth=1;fontFamily=Verdana;fontSize=10;align=center;fillColor=none;" parent="1" vertex="1">
          <mxGeometry x="3160" y="818" width="1854" height="225" as="geometry" />
        </mxCell>
        <mxCell id="RyL7KmwlNNh2GB8NotcJ-12" style="rounded=0;html=1;dashed=1;labelBackgroundColor=none;startFill=0;endArrow=open;endFill=0;endSize=10;fontFamily=Verdana;fontSize=10;edgeStyle=elbowEdgeStyle;entryX=0.472;entryY=0.052;entryDx=0;entryDy=0;entryPerimeter=0;" parent="1" source="RyL7KmwlNNh2GB8NotcJ-11" target="RyL7KmwlNNh2GB8NotcJ-4" edge="1">
          <mxGeometry relative="1" as="geometry">
            <mxPoint x="1470" y="990" as="sourcePoint" />
            <mxPoint x="1471" y="1596" as="targetPoint" />
            <Array as="points" />
          </mxGeometry>
        </mxCell>
        <mxCell id="RyL7KmwlNNh2GB8NotcJ-14" value="" style="shape=folder;fontStyle=1;spacingTop=10;tabWidth=123;tabHeight=24;tabPosition=left;html=1;rounded=0;shadow=0;comic=0;labelBackgroundColor=none;strokeWidth=1;fontFamily=Verdana;fontSize=10;align=center;fillColor=none;" parent="1" vertex="1">
          <mxGeometry x="6950" y="500" width="740" height="225" as="geometry" />
        </mxCell>
        <mxCell id="RyL7KmwlNNh2GB8NotcJ-16" style="rounded=0;html=1;dashed=1;labelBackgroundColor=none;startFill=0;endArrow=open;endFill=0;endSize=10;fontFamily=Verdana;fontSize=10;edgeStyle=elbowEdgeStyle;exitX=0.45;exitY=1.009;exitDx=0;exitDy=0;exitPerimeter=0;" parent="1" source="RyL7KmwlNNh2GB8NotcJ-4" target="RyL7KmwlNNh2GB8NotcJ-5" edge="1">
          <mxGeometry relative="1" as="geometry">
            <mxPoint x="4190" y="1053" as="sourcePoint" />
            <mxPoint x="4189" y="1530" as="targetPoint" />
            <Array as="points" />
          </mxGeometry>
        </mxCell>
        <mxCell id="RyL7KmwlNNh2GB8NotcJ-17" value="" style="shape=folder;fontStyle=1;spacingTop=10;tabWidth=123;tabHeight=24;tabPosition=left;html=1;rounded=0;shadow=0;comic=0;labelBackgroundColor=none;strokeWidth=1;fontFamily=Verdana;fontSize=10;align=center;fillColor=none;" parent="1" vertex="1">
          <mxGeometry x="6948" y="925.5" width="740" height="225" as="geometry" />
        </mxCell>
        <mxCell id="RyL7KmwlNNh2GB8NotcJ-18" style="rounded=0;html=1;dashed=1;labelBackgroundColor=none;startFill=0;endArrow=open;endFill=0;endSize=10;fontFamily=Verdana;fontSize=10;edgeStyle=elbowEdgeStyle;exitX=0.5;exitY=1;exitDx=0;exitDy=0;exitPerimeter=0;entryX=0.902;entryY=0.075;entryDx=0;entryDy=0;entryPerimeter=0;" parent="1" source="RyL7KmwlNNh2GB8NotcJ-17" target="RyL7KmwlNNh2GB8NotcJ-4" edge="1">
          <mxGeometry relative="1" as="geometry">
            <mxPoint x="4190" y="1053" as="sourcePoint" />
            <mxPoint x="4189" y="1530" as="targetPoint" />
            <Array as="points" />
          </mxGeometry>
        </mxCell>
        <mxCell id="RyL7KmwlNNh2GB8NotcJ-4" value="" style="shape=folder;fontStyle=1;spacingTop=10;tabWidth=123;tabHeight=24;tabPosition=left;html=1;rounded=0;shadow=0;comic=0;labelBackgroundColor=none;strokeWidth=1;fontFamily=Verdana;fontSize=10;align=center;fillColor=none;" parent="1" vertex="1">
          <mxGeometry x="740" y="1536.8767391304345" width="7308" height="443.12326086956523" as="geometry" />
        </mxCell>
      </root>
    </mxGraphModel>
  </diagram>
</mxfile>
